# xmcd
#
# Track frame offsets: 
#        150
#        16693
#        35082
#        51761
#        78211
#
# Disc length: 1300 seconds
#
# Revision: 0
# Processed by: cddbd v1.5.2PL0 Copyright (c) Steve Scherf et al.
# Submitted via: ExactAudioCopy v0.95b4
#
DISCID=2f051205
DTITLE=Black Tie Dynasty - I Like U [CD Maxi-Single)
DYEAR=2006
DGENRE=Rock
TTITLE0=I Like U (Radio Edit)
TTITLE1=The Vex
TTITLE2=Lakes (Live from The KDGE Adventure Club Sessions)
TTITLE3=Christmas Time (feat PPT)
TTITLE4=I Like U (Album Version)
EXTD=
EXTT0=
EXTT1=
EXTT2=
EXTT3=
EXTT4=
PLAYORDER=
